<svg xmlns="http://www.w3.org/2000/svg" xmlns:xlink="http://www.w3.org/1999/xlink" width="128" height="128"><style>.flap{fill:url(#flap-grad);stroke:#500;stroke-width:1;stroke-linecap:butt;stroke-linejoin:round}</style><defs><linearGradient x2="0" y2="1" id="body-grad"><stop offset=".32" stop-color="#c00"/><stop offset=".32" stop-color="#ccc"/><stop offset="1" stop-color="#777"/></linearGradient><linearGradient id="flap-grad"><stop offset="0" stop-color="#c00"/><stop offset="1" stop-color="#800"/></linearGradient><linearGradient x2="0" y2="1" id="mid-flap-grad"><stop offset=".25" stop-color="#500"/><stop offset=".26" stop-color="#c00"/></linearGradient><linearGradient x2="0" y2="1" id="hilight-grad"><stop offset="0" stop-color="#fff"/><stop offset="1" stop-color="#fff" stop-opacity="0"/></linearGradient><radialGradient cx=".5" cy=".5" r=".5" id="shadow-grad"><stop offset="0"/><stop offset="1" stop-opacity="0"/></radialGradient><radialGradient cx=".55" cy="-.01" r=".3" id="body-radial-grad" gradientTransform="matrix(.77 .64 -1 1.3 0 0)"><stop offset="0" stop-color="#fff"/><stop offset=".3" stop-color="#fff" stop-opacity=".5"/><stop offset="1" stop-color="#fff" stop-opacity=".13"/></radialGradient><filter x="0" y="-.36" width="1.17" height="1.7" color-interpolation-filters="sRGB" id="shadow-filter"><feGaussianBlur stdDeviation="1.77"/></filter><path d="M-19 37c-6-62-2-67 19-97 21 30 25 35 19 97z" id="body"/><path d="M0 0l-20 20v-44L0-44z" id="flap-path"/><path d="M0 0l12-12q0 25-12 50z" id="flap-hilight-path"/><clipPath id="clip-body"><use xlink:href="#body"/></clipPath></defs><g transform="translate(64 64)"><ellipse cy="53" rx="37" ry="5" opacity=".5" fill="url(#shadow-grad)" filter="url(#shadow-filter)"/><use xlink:href="#flap-path" class="flap" transform="translate(-19 37)"/><use xlink:href="#flap-path" class="flap" transform="matrix(-1 0 0 1 19 37)"/><use xlink:href="#flap-hilight-path" opacity=".25" fill="url(#hilight-grad)" transform="translate(-37 13)"/><use xlink:href="#flap-hilight-path" opacity=".25" fill="url(#hilight-grad)" transform="matrix(-1 0 0 1 37 13)"/><use xlink:href="#body" fill="url(#body-grad)"/><ellipse cx="-5" cy="-23" rx="25" ry="40" fill="url(#body-radial-grad)" clip-path="url(#clip-body)"/><path opacity=".4" fill="url(#hilight-grad)" d="M-14 40C-24-25-16-30-.5-58c11 28 16 33 6 98z"/><use xlink:href="#body" fill="none" stroke="#444" stroke-linejoin="round"/><path d="M-3-2h6v60h-6z" fill="url(#mid-flap-grad)" stroke="#500" stroke-linejoin="round"/><path d="M-2 14h4l-4 40z" fill="url(#hilight-grad)" opacity=".4"/></g></svg>